<mxfile host="app.diagrams.net" agent="Mozilla/5.0 (X11; Linux x86_64) AppleWebKit/537.36 (KHTML, like Gecko) Chrome/131.0.0.0 Safari/537.36" version="24.8.4">
  <diagram name="PÃ¡gina-1" id="BZbnMMPLIYU0pQFjoXJA">
    <mxGraphModel dx="1928" dy="2605" grid="1" gridSize="10" guides="1" tooltips="1" connect="1" arrows="1" fold="1" page="0" pageScale="1" pageWidth="827" pageHeight="1169" math="0" shadow="0">
      <root>
        <mxCell id="0" />
        <mxCell id="1" parent="0" />
        <mxCell id="dpE1e3hh8Av37720QyTg-1" value="AWS Cloud" style="points=[[0,0],[0.25,0],[0.5,0],[0.75,0],[1,0],[1,0.25],[1,0.5],[1,0.75],[1,1],[0.75,1],[0.5,1],[0.25,1],[0,1],[0,0.75],[0,0.5],[0,0.25]];outlineConnect=0;gradientColor=none;html=1;whiteSpace=wrap;fontSize=12;fontStyle=0;container=1;pointerEvents=0;collapsible=0;recursiveResize=0;shape=mxgraph.aws4.group;grIcon=mxgraph.aws4.group_aws_cloud_alt;strokeColor=#232F3E;fillColor=default;verticalAlign=top;align=left;spacingLeft=30;fontColor=#232F3E;dashed=0;" vertex="1" parent="1">
          <mxGeometry x="960" y="-120" width="840" height="760" as="geometry" />
        </mxCell>
        <mxCell id="dpE1e3hh8Av37720QyTg-35" value="" style="fillColor=#FFFFFF;strokeColor=#9673a6;dashed=1;verticalAlign=top;fontStyle=0;whiteSpace=wrap;html=1;strokeWidth=2;" vertex="1" parent="1">
          <mxGeometry x="1000" y="-40" width="400" height="200" as="geometry" />
        </mxCell>
        <mxCell id="dpE1e3hh8Av37720QyTg-3" value="" style="sketch=0;points=[[0,0,0],[0.25,0,0],[0.5,0,0],[0.75,0,0],[1,0,0],[0,1,0],[0.25,1,0],[0.5,1,0],[0.75,1,0],[1,1,0],[0,0.25,0],[0,0.5,0],[0,0.75,0],[1,0.25,0],[1,0.5,0],[1,0.75,0]];outlineConnect=0;fontColor=#232F3E;fillColor=#8C4FFF;strokeColor=#ffffff;dashed=0;verticalLabelPosition=bottom;verticalAlign=top;align=center;html=1;fontSize=12;fontStyle=0;aspect=fixed;shape=mxgraph.aws4.resourceIcon;resIcon=mxgraph.aws4.athena;" vertex="1" parent="1">
          <mxGeometry x="1040" y="240" width="78" height="78" as="geometry" />
        </mxCell>
        <mxCell id="dpE1e3hh8Av37720QyTg-5" value="Glue Data&lt;div&gt;Catalog&lt;/div&gt;" style="sketch=0;outlineConnect=0;fontColor=#232F3E;gradientColor=none;fillColor=#8C4FFF;strokeColor=none;dashed=0;verticalLabelPosition=bottom;verticalAlign=top;align=center;html=1;fontSize=12;fontStyle=0;aspect=fixed;pointerEvents=1;shape=mxgraph.aws4.glue_data_catalog;" vertex="1" parent="1">
          <mxGeometry x="125" y="-628" width="72" height="78" as="geometry" />
        </mxCell>
        <mxCell id="dpE1e3hh8Av37720QyTg-68" style="edgeStyle=orthogonalEdgeStyle;rounded=0;orthogonalLoop=1;jettySize=auto;html=1;" edge="1" parent="1" source="dpE1e3hh8Av37720QyTg-7" target="dpE1e3hh8Av37720QyTg-67">
          <mxGeometry relative="1" as="geometry" />
        </mxCell>
        <mxCell id="dpE1e3hh8Av37720QyTg-7" value="" style="sketch=0;outlineConnect=0;fontColor=#232F3E;gradientColor=none;fillColor=#232F3D;strokeColor=none;dashed=0;verticalLabelPosition=bottom;verticalAlign=top;align=center;html=1;fontSize=12;fontStyle=0;aspect=fixed;pointerEvents=1;shape=mxgraph.aws4.user;" vertex="1" parent="1">
          <mxGeometry x="810" y="-628" width="78" height="78" as="geometry" />
        </mxCell>
        <mxCell id="dpE1e3hh8Av37720QyTg-77" style="edgeStyle=orthogonalEdgeStyle;rounded=0;orthogonalLoop=1;jettySize=auto;html=1;dashed=1;" edge="1" parent="1" source="dpE1e3hh8Av37720QyTg-14">
          <mxGeometry relative="1" as="geometry">
            <mxPoint x="600" y="-450" as="targetPoint" />
          </mxGeometry>
        </mxCell>
        <mxCell id="dpE1e3hh8Av37720QyTg-14" value="PARQUET" style="image;aspect=fixed;html=1;points=[];align=center;fontSize=12;image=img/lib/azure2/general/File.svg;fontColor=#000000;imageBackground=none;" vertex="1" parent="1">
          <mxGeometry x="280" y="-319" width="56.00000000000001" height="69" as="geometry" />
        </mxCell>
        <mxCell id="dpE1e3hh8Av37720QyTg-17" value="CSV" style="image;aspect=fixed;html=1;points=[];align=center;fontSize=12;image=img/lib/azure2/general/File.svg;fontColor=#000000;imageBackground=none;" vertex="1" parent="1">
          <mxGeometry x="120" y="-319" width="56.00000000000001" height="69" as="geometry" />
        </mxCell>
        <mxCell id="dpE1e3hh8Av37720QyTg-18" value="JSON" style="image;aspect=fixed;html=1;points=[];align=center;fontSize=12;image=img/lib/azure2/general/File.svg;fontColor=#000000;imageBackground=none;" vertex="1" parent="1">
          <mxGeometry x="198" y="-319" width="56.00000000000001" height="69" as="geometry" />
        </mxCell>
        <mxCell id="dpE1e3hh8Av37720QyTg-19" value="Arquivo" style="text;html=1;align=center;verticalAlign=middle;whiteSpace=wrap;rounded=0;fontSize=16;" vertex="1" parent="1">
          <mxGeometry x="-42" y="-319" width="160" height="40" as="geometry" />
        </mxCell>
        <mxCell id="dpE1e3hh8Av37720QyTg-20" value="Armazenamento" style="text;html=1;align=center;verticalAlign=middle;whiteSpace=wrap;rounded=0;fontSize=16;" vertex="1" parent="1">
          <mxGeometry x="-40" y="-457" width="160" height="40" as="geometry" />
        </mxCell>
        <mxCell id="dpE1e3hh8Av37720QyTg-21" value="S3" style="sketch=0;points=[[0,0,0],[0.25,0,0],[0.5,0,0],[0.75,0,0],[1,0,0],[0,1,0],[0.25,1,0],[0.5,1,0],[0.75,1,0],[1,1,0],[0,0.25,0],[0,0.5,0],[0,0.75,0],[1,0.25,0],[1,0.5,0],[1,0.75,0]];outlineConnect=0;fontColor=#232F3E;fillColor=#7AA116;strokeColor=#ffffff;dashed=0;verticalLabelPosition=bottom;verticalAlign=top;align=center;html=1;fontSize=12;fontStyle=0;aspect=fixed;shape=mxgraph.aws4.resourceIcon;resIcon=mxgraph.aws4.s3;" vertex="1" parent="1">
          <mxGeometry x="122" y="-476" width="78" height="78" as="geometry" />
        </mxCell>
        <mxCell id="dpE1e3hh8Av37720QyTg-24" value="Catalogo" style="text;html=1;align=center;verticalAlign=middle;whiteSpace=wrap;rounded=0;fontSize=16;" vertex="1" parent="1">
          <mxGeometry x="-40" y="-609" width="160" height="40" as="geometry" />
        </mxCell>
        <mxCell id="dpE1e3hh8Av37720QyTg-25" value="Lake Formation" style="sketch=0;points=[[0,0,0],[0.25,0,0],[0.5,0,0],[0.75,0,0],[1,0,0],[0,1,0],[0.25,1,0],[0.5,1,0],[0.75,1,0],[1,1,0],[0,0.25,0],[0,0.5,0],[0,0.75,0],[1,0.25,0],[1,0.5,0],[1,0.75,0]];outlineConnect=0;fontColor=#232F3E;fillColor=#8C4FFF;strokeColor=#ffffff;dashed=0;verticalLabelPosition=bottom;verticalAlign=top;align=center;html=1;fontSize=12;fontStyle=0;aspect=fixed;shape=mxgraph.aws4.resourceIcon;resIcon=mxgraph.aws4.lake_formation;" vertex="1" parent="1">
          <mxGeometry x="122" y="-770" width="78" height="78" as="geometry" />
        </mxCell>
        <mxCell id="dpE1e3hh8Av37720QyTg-26" value="Governanca" style="text;html=1;align=center;verticalAlign=middle;whiteSpace=wrap;rounded=0;fontSize=16;" vertex="1" parent="1">
          <mxGeometry x="-40" y="-751" width="160" height="40" as="geometry" />
        </mxCell>
        <mxCell id="dpE1e3hh8Av37720QyTg-27" value="IAM" style="sketch=0;points=[[0,0,0],[0.25,0,0],[0.5,0,0],[0.75,0,0],[1,0,0],[0,1,0],[0.25,1,0],[0.5,1,0],[0.75,1,0],[1,1,0],[0,0.25,0],[0,0.5,0],[0,0.75,0],[1,0.25,0],[1,0.5,0],[1,0.75,0]];outlineConnect=0;fontColor=#232F3E;fillColor=#DD344C;strokeColor=#ffffff;dashed=0;verticalLabelPosition=bottom;verticalAlign=top;align=center;html=1;fontSize=12;fontStyle=0;aspect=fixed;shape=mxgraph.aws4.resourceIcon;resIcon=mxgraph.aws4.identity_and_access_management;" vertex="1" parent="1">
          <mxGeometry x="520" y="-840" width="78" height="78" as="geometry" />
        </mxCell>
        <mxCell id="dpE1e3hh8Av37720QyTg-28" value="Seguranca" style="text;html=1;align=center;verticalAlign=middle;whiteSpace=wrap;rounded=0;fontSize=16;" vertex="1" parent="1">
          <mxGeometry x="360" y="-821" width="160" height="40" as="geometry" />
        </mxCell>
        <mxCell id="dpE1e3hh8Av37720QyTg-61" style="edgeStyle=orthogonalEdgeStyle;rounded=0;orthogonalLoop=1;jettySize=auto;html=1;" edge="1" parent="1" source="dpE1e3hh8Av37720QyTg-32" target="dpE1e3hh8Av37720QyTg-3">
          <mxGeometry relative="1" as="geometry" />
        </mxCell>
        <mxCell id="dpE1e3hh8Av37720QyTg-32" value="" style="sketch=0;outlineConnect=0;fontColor=#232F3E;gradientColor=none;fillColor=#232F3D;strokeColor=none;dashed=0;verticalLabelPosition=bottom;verticalAlign=top;align=center;html=1;fontSize=12;fontStyle=0;aspect=fixed;pointerEvents=1;shape=mxgraph.aws4.user;" vertex="1" parent="1">
          <mxGeometry x="800" y="240" width="78" height="78" as="geometry" />
        </mxCell>
        <mxCell id="dpE1e3hh8Av37720QyTg-34" value="Glue Data&lt;div&gt;Catalog&lt;/div&gt;" style="sketch=0;outlineConnect=0;fontColor=#232F3E;gradientColor=none;fillColor=#8C4FFF;strokeColor=none;dashed=0;verticalLabelPosition=bottom;verticalAlign=top;align=center;html=1;fontSize=12;fontStyle=0;aspect=fixed;pointerEvents=1;shape=mxgraph.aws4.glue_data_catalog;" vertex="1" parent="1">
          <mxGeometry x="1040" y="21" width="72" height="78" as="geometry" />
        </mxCell>
        <mxCell id="dpE1e3hh8Av37720QyTg-31" value="" style="fillColor=none;strokeColor=#5A6C86;dashed=1;verticalAlign=top;fontStyle=0;fontColor=#5A6C86;whiteSpace=wrap;html=1;" vertex="1" parent="1">
          <mxGeometry x="1000" y="400" width="320" height="200" as="geometry" />
        </mxCell>
        <mxCell id="dpE1e3hh8Av37720QyTg-29" value="PARQUET" style="image;aspect=fixed;html=1;points=[];align=center;fontSize=12;image=img/lib/azure2/general/File.svg;fontColor=#000000;imageBackground=none;" vertex="1" parent="1">
          <mxGeometry x="1072" y="465.5" width="56.00000000000001" height="69" as="geometry" />
        </mxCell>
        <mxCell id="dpE1e3hh8Av37720QyTg-30" value="" style="sketch=0;points=[[0,0,0],[0.25,0,0],[0.5,0,0],[0.75,0,0],[1,0,0],[0,1,0],[0.25,1,0],[0.5,1,0],[0.75,1,0],[1,1,0],[0,0.25,0],[0,0.5,0],[0,0.75,0],[1,0.25,0],[1,0.5,0],[1,0.75,0]];outlineConnect=0;fontColor=#232F3E;fillColor=#7AA116;strokeColor=#ffffff;dashed=0;verticalLabelPosition=bottom;verticalAlign=top;align=center;html=1;fontSize=12;fontStyle=0;aspect=fixed;shape=mxgraph.aws4.resourceIcon;resIcon=mxgraph.aws4.s3;" vertex="1" parent="1">
          <mxGeometry x="1000" y="400" width="40" height="40" as="geometry" />
        </mxCell>
        <mxCell id="dpE1e3hh8Av37720QyTg-4" value="Refshift" style="sketch=0;points=[[0,0,0],[0.25,0,0],[0.5,0,0],[0.75,0,0],[1,0,0],[0,1,0],[0.25,1,0],[0.5,1,0],[0.75,1,0],[1,1,0],[0,0.25,0],[0,0.5,0],[0,0.75,0],[1,0.25,0],[1,0.5,0],[1,0.75,0]];outlineConnect=0;fontColor=#232F3E;fillColor=#8C4FFF;strokeColor=#ffffff;dashed=0;verticalLabelPosition=bottom;verticalAlign=top;align=center;html=1;fontSize=12;fontStyle=0;aspect=fixed;shape=mxgraph.aws4.resourceIcon;resIcon=mxgraph.aws4.redshift;" vertex="1" parent="1">
          <mxGeometry x="1640" y="461" width="78" height="78" as="geometry" />
        </mxCell>
        <mxCell id="dpE1e3hh8Av37720QyTg-8" value="Aurora" style="sketch=0;points=[[0,0,0],[0.25,0,0],[0.5,0,0],[0.75,0,0],[1,0,0],[0,1,0],[0.25,1,0],[0.5,1,0],[0.75,1,0],[1,1,0],[0,0.25,0],[0,0.5,0],[0,0.75,0],[1,0.25,0],[1,0.5,0],[1,0.75,0]];outlineConnect=0;fontColor=#232F3E;fillColor=#C925D1;strokeColor=#ffffff;dashed=0;verticalLabelPosition=bottom;verticalAlign=top;align=center;html=1;fontSize=12;fontStyle=0;aspect=fixed;shape=mxgraph.aws4.resourceIcon;resIcon=mxgraph.aws4.aurora;" vertex="1" parent="1">
          <mxGeometry x="1520" y="461" width="78" height="78" as="geometry" />
        </mxCell>
        <mxCell id="dpE1e3hh8Av37720QyTg-10" value="RDS" style="sketch=0;points=[[0,0,0],[0.25,0,0],[0.5,0,0],[0.75,0,0],[1,0,0],[0,1,0],[0.25,1,0],[0.5,1,0],[0.75,1,0],[1,1,0],[0,0.25,0],[0,0.5,0],[0,0.75,0],[1,0.25,0],[1,0.5,0],[1,0.75,0]];outlineConnect=0;fontColor=#232F3E;fillColor=#C925D1;strokeColor=#ffffff;dashed=0;verticalLabelPosition=bottom;verticalAlign=top;align=center;html=1;fontSize=12;fontStyle=0;aspect=fixed;shape=mxgraph.aws4.resourceIcon;resIcon=mxgraph.aws4.rds;" vertex="1" parent="1">
          <mxGeometry x="1400" y="461" width="78" height="78" as="geometry" />
        </mxCell>
        <mxCell id="dpE1e3hh8Av37720QyTg-42" value="Nome:" style="text;html=1;align=left;verticalAlign=middle;whiteSpace=wrap;rounded=0;fontStyle=1" vertex="1" parent="1">
          <mxGeometry x="1160" y="20" width="80" height="20" as="geometry" />
        </mxCell>
        <mxCell id="dpE1e3hh8Av37720QyTg-43" value="Database:" style="text;html=1;align=left;verticalAlign=middle;whiteSpace=wrap;rounded=0;fontStyle=1" vertex="1" parent="1">
          <mxGeometry x="1160" y="40" width="80" height="20" as="geometry" />
        </mxCell>
        <mxCell id="dpE1e3hh8Av37720QyTg-44" value="Formato:" style="text;html=1;align=left;verticalAlign=middle;whiteSpace=wrap;rounded=0;fontStyle=1" vertex="1" parent="1">
          <mxGeometry x="1160" y="60" width="80" height="20" as="geometry" />
        </mxCell>
        <mxCell id="dpE1e3hh8Av37720QyTg-46" value="LocalizaÃ§Ã£o:" style="text;html=1;align=left;verticalAlign=middle;whiteSpace=wrap;rounded=0;fontStyle=1" vertex="1" parent="1">
          <mxGeometry x="1160" y="80" width="80" height="20" as="geometry" />
        </mxCell>
        <mxCell id="dpE1e3hh8Av37720QyTg-47" value="Schema:" style="text;html=1;align=left;verticalAlign=middle;whiteSpace=wrap;rounded=0;fontStyle=1" vertex="1" parent="1">
          <mxGeometry x="1160" y="100" width="80" height="20" as="geometry" />
        </mxCell>
        <mxCell id="dpE1e3hh8Av37720QyTg-48" value="PartiÃ§Ãµes:" style="text;html=1;align=left;verticalAlign=middle;whiteSpace=wrap;rounded=0;fontStyle=1" vertex="1" parent="1">
          <mxGeometry x="1160" y="120" width="80" height="20" as="geometry" />
        </mxCell>
        <mxCell id="dpE1e3hh8Av37720QyTg-49" value="tabela_xyz" style="text;html=1;align=left;verticalAlign=middle;whiteSpace=wrap;rounded=0;" vertex="1" parent="1">
          <mxGeometry x="1240" y="20" width="120" height="20" as="geometry" />
        </mxCell>
        <mxCell id="dpE1e3hh8Av37720QyTg-50" value="workspace_db" style="text;html=1;align=left;verticalAlign=middle;whiteSpace=wrap;rounded=0;" vertex="1" parent="1">
          <mxGeometry x="1240" y="40" width="120" height="20" as="geometry" />
        </mxCell>
        <mxCell id="dpE1e3hh8Av37720QyTg-51" value="parquet" style="text;html=1;align=left;verticalAlign=middle;whiteSpace=wrap;rounded=0;" vertex="1" parent="1">
          <mxGeometry x="1240" y="60" width="120" height="20" as="geometry" />
        </mxCell>
        <mxCell id="dpE1e3hh8Av37720QyTg-52" value="s3://bucket/prefix/" style="text;html=1;align=left;verticalAlign=middle;whiteSpace=wrap;rounded=0;" vertex="1" parent="1">
          <mxGeometry x="1240" y="80" width="120" height="20" as="geometry" />
        </mxCell>
        <mxCell id="dpE1e3hh8Av37720QyTg-54" value="{coluna: tipo, ...}" style="text;html=1;align=left;verticalAlign=middle;whiteSpace=wrap;rounded=0;" vertex="1" parent="1">
          <mxGeometry x="1240" y="100" width="120" height="20" as="geometry" />
        </mxCell>
        <mxCell id="dpE1e3hh8Av37720QyTg-55" value="[dat_rfrc, ind_esto]" style="text;html=1;align=left;verticalAlign=middle;whiteSpace=wrap;rounded=0;" vertex="1" parent="1">
          <mxGeometry x="1240" y="120" width="120" height="20" as="geometry" />
        </mxCell>
        <mxCell id="dpE1e3hh8Av37720QyTg-56" value="RepositÃ³rio central de metadados da AWS" style="text;html=1;align=center;verticalAlign=middle;whiteSpace=wrap;rounded=0;fontSize=15;fontStyle=1" vertex="1" parent="1">
          <mxGeometry x="1000" y="-40" width="400" height="20" as="geometry" />
        </mxCell>
        <mxCell id="dpE1e3hh8Av37720QyTg-58" style="edgeStyle=orthogonalEdgeStyle;rounded=0;orthogonalLoop=1;jettySize=auto;html=1;entryX=0.197;entryY=1.007;entryDx=0;entryDy=0;entryPerimeter=0;" edge="1" parent="1" source="dpE1e3hh8Av37720QyTg-3" target="dpE1e3hh8Av37720QyTg-35">
          <mxGeometry relative="1" as="geometry" />
        </mxCell>
        <mxCell id="dpE1e3hh8Av37720QyTg-59" style="edgeStyle=orthogonalEdgeStyle;rounded=0;orthogonalLoop=1;jettySize=auto;html=1;entryX=0.398;entryY=-0.006;entryDx=0;entryDy=0;entryPerimeter=0;" edge="1" parent="1" source="dpE1e3hh8Av37720QyTg-3" target="dpE1e3hh8Av37720QyTg-31">
          <mxGeometry relative="1" as="geometry" />
        </mxCell>
        <mxCell id="dpE1e3hh8Av37720QyTg-60" value="Athena" style="text;html=1;align=left;verticalAlign=middle;whiteSpace=wrap;rounded=0;" vertex="1" parent="1">
          <mxGeometry x="1030" y="318" width="60" height="20" as="geometry" />
        </mxCell>
        <mxCell id="dpE1e3hh8Av37720QyTg-62" value="PARQUET" style="image;aspect=fixed;html=1;points=[];align=center;fontSize=12;image=img/lib/azure2/general/File.svg;fontColor=#000000;imageBackground=none;" vertex="1" parent="1">
          <mxGeometry x="1200" y="465.5" width="56.00000000000001" height="69" as="geometry" />
        </mxCell>
        <mxCell id="dpE1e3hh8Av37720QyTg-63" value="" style="fillColor=none;strokeColor=#5A6C86;dashed=1;verticalAlign=top;fontStyle=0;fontColor=#5A6C86;whiteSpace=wrap;html=1;" vertex="1" parent="1">
          <mxGeometry x="1360" y="400" width="400" height="200" as="geometry" />
        </mxCell>
        <mxCell id="dpE1e3hh8Av37720QyTg-64" value="" style="endArrow=none;html=1;rounded=0;" edge="1" parent="1">
          <mxGeometry width="50" height="50" relative="1" as="geometry">
            <mxPoint x="-80" y="-360" as="sourcePoint" />
            <mxPoint x="440" y="-360" as="targetPoint" />
          </mxGeometry>
        </mxCell>
        <mxCell id="dpE1e3hh8Av37720QyTg-65" value="" style="endArrow=none;html=1;rounded=0;" edge="1" parent="1">
          <mxGeometry width="50" height="50" relative="1" as="geometry">
            <mxPoint x="-80" y="-495" as="sourcePoint" />
            <mxPoint x="440" y="-495" as="targetPoint" />
          </mxGeometry>
        </mxCell>
        <mxCell id="dpE1e3hh8Av37720QyTg-66" value="" style="endArrow=none;html=1;rounded=0;" edge="1" parent="1">
          <mxGeometry width="50" height="50" relative="1" as="geometry">
            <mxPoint x="-80" y="-650" as="sourcePoint" />
            <mxPoint x="440" y="-650" as="targetPoint" />
          </mxGeometry>
        </mxCell>
        <mxCell id="dpE1e3hh8Av37720QyTg-67" value="Athena" style="sketch=0;points=[[0,0,0],[0.25,0,0],[0.5,0,0],[0.75,0,0],[1,0,0],[0,1,0],[0.25,1,0],[0.5,1,0],[0.75,1,0],[1,1,0],[0,0.25,0],[0,0.5,0],[0,0.75,0],[1,0.25,0],[1,0.5,0],[1,0.75,0]];outlineConnect=0;fontColor=#232F3E;fillColor=#8C4FFF;strokeColor=#ffffff;dashed=0;verticalLabelPosition=bottom;verticalAlign=top;align=center;html=1;fontSize=12;fontStyle=0;aspect=fixed;shape=mxgraph.aws4.resourceIcon;resIcon=mxgraph.aws4.athena;" vertex="1" parent="1">
          <mxGeometry x="560" y="-628" width="78" height="78" as="geometry" />
        </mxCell>
        <mxCell id="dpE1e3hh8Av37720QyTg-74" style="edgeStyle=orthogonalEdgeStyle;rounded=0;orthogonalLoop=1;jettySize=auto;html=1;dashed=1;" edge="1" parent="1" source="dpE1e3hh8Av37720QyTg-69" target="dpE1e3hh8Av37720QyTg-21">
          <mxGeometry relative="1" as="geometry">
            <Array as="points">
              <mxPoint x="480" y="-490" />
              <mxPoint x="480" y="-450" />
            </Array>
          </mxGeometry>
        </mxCell>
        <mxCell id="dpE1e3hh8Av37720QyTg-69" value="engine (trino)" style="sketch=0;outlineConnect=0;fontColor=#232F3E;gradientColor=none;fillColor=#8C4FFF;strokeColor=none;dashed=0;verticalLabelPosition=bottom;verticalAlign=top;align=center;html=1;fontSize=12;fontStyle=0;aspect=fixed;pointerEvents=1;shape=mxgraph.aws4.emr_engine;" vertex="1" parent="1">
          <mxGeometry x="572.5600000000001" y="-516" width="52.88" height="40" as="geometry" />
        </mxCell>
        <mxCell id="dpE1e3hh8Av37720QyTg-71" value="" style="endArrow=classic;html=1;rounded=0;dashed=1;" edge="1" parent="1">
          <mxGeometry width="50" height="50" relative="1" as="geometry">
            <mxPoint x="540" y="-600" as="sourcePoint" />
            <mxPoint x="220" y="-600" as="targetPoint" />
          </mxGeometry>
        </mxCell>
        <mxCell id="dpE1e3hh8Av37720QyTg-72" value="" style="endArrow=classic;html=1;rounded=0;dashed=1;" edge="1" parent="1">
          <mxGeometry width="50" height="50" relative="1" as="geometry">
            <mxPoint x="220" y="-570" as="sourcePoint" />
            <mxPoint x="540" y="-570" as="targetPoint" />
          </mxGeometry>
        </mxCell>
        <mxCell id="dpE1e3hh8Av37720QyTg-73" value="info" style="shape=document;whiteSpace=wrap;html=1;boundedLbl=1;dashed=0;flipH=1;" vertex="1" parent="1">
          <mxGeometry x="500" y="-560" width="42" height="20" as="geometry" />
        </mxCell>
        <mxCell id="dpE1e3hh8Av37720QyTg-76" style="edgeStyle=orthogonalEdgeStyle;rounded=0;orthogonalLoop=1;jettySize=auto;html=1;entryX=0.39;entryY=0.018;entryDx=0;entryDy=0;entryPerimeter=0;dashed=1;" edge="1" parent="1" source="dpE1e3hh8Av37720QyTg-21" target="dpE1e3hh8Av37720QyTg-14">
          <mxGeometry relative="1" as="geometry">
            <Array as="points">
              <mxPoint x="302" y="-420" />
            </Array>
          </mxGeometry>
        </mxCell>
      </root>
    </mxGraphModel>
  </diagram>
</mxfile>
